#N canvas 442 196 460 567 10;
#X obj 45 41 inlet;
#X obj 45 499 vline~, f 16;
#X obj 45 540 outlet~;
#X obj 209 41 inlet;
#X obj 272 41 inlet;
#X obj 91 119 unpack f f f, f 21;
#X obj 152 401 pipe f f f 0, f 16;
#X obj 45 334 route 0 1;
#X obj 45 228 list prepend 0;
#N canvas 461 366 450 300 nonzero? 0;
#X obj 141 48 inlet;
#X obj 223 47 inlet;
#X obj 141 69 t a a;
#X obj 223 68 t a a;
#X obj 168 170 ||;
#X obj 250 118 t b a;
#X obj 141 227 outlet;
#X obj 223 227 outlet;
#X obj 55 227 outlet;
#X obj 168 99 !=;
#X obj 250 97 !=;
#X connect 0 0 2 0;
#X connect 1 0 3 0;
#X connect 2 0 6 0;
#X connect 2 1 9 0;
#X connect 3 0 7 0;
#X connect 3 1 10 0;
#X connect 4 0 8 0;
#X connect 5 0 4 0;
#X connect 5 1 4 1;
#X connect 9 0 4 0;
#X connect 10 0 5 0;
#X restore 151 182 pd nonzero?;
#X obj 229 145 r \$0-reset;
#X obj 124 350 t b a;
#X obj 124 454 s \$0-reset;
#X msg 229 166 0;
#X text 319 541 Ben Wesch \, 2025;
#X obj 182 350 * 1;
#X obj 214 350 * 1;
#X obj 308 334 f, f 5;
#X msg 308 208 args;
#X obj 308 229 pdcontrol;
#X obj 45 82 route float list;
#X obj 308 250 t s;
#X obj 308 271 sel samp;
#X obj 308 187 t b a;
#X obj 335 292 t a;
#X obj 308 124 samplerate~;
#X msg 308 145 1000 \$1;
#X obj 308 166 /;
#X obj 308 103 r pd-dsp-started;
#X obj 201 308 f;
#X obj 182 239 t a b a;
#X obj 255 440 pack f f f;
#X obj 255 461 print;
#X obj 215 218 t a a;
#X obj 244 240 >= 0;
#X obj 229 287 *;
#X obj 214 376 -;
#X obj 229 308 *;
#X obj 229 265 == 0;
#X connect 0 0 20 0;
#X connect 1 0 2 0;
#X connect 3 0 9 0;
#X connect 4 0 9 1;
#X connect 5 0 8 0;
#X connect 5 1 9 0;
#X connect 5 2 9 1;
#X connect 6 0 1 0;
#X connect 6 0 31 0;
#X connect 6 1 1 1;
#X connect 6 1 31 1;
#X connect 6 2 1 2;
#X connect 6 2 31 2;
#X connect 7 0 1 0;
#X connect 7 1 11 0;
#X connect 8 0 7 0;
#X connect 9 0 8 1;
#X connect 9 1 30 0;
#X connect 9 2 33 0;
#X connect 10 0 13 0;
#X connect 11 0 12 0;
#X connect 11 1 6 0;
#X connect 13 0 9 1;
#X connect 13 0 9 0;
#X connect 15 0 6 1;
#X connect 16 0 36 0;
#X connect 17 0 16 1;
#X connect 17 0 15 1;
#X connect 18 0 19 0;
#X connect 19 0 21 0;
#X connect 20 0 8 0;
#X connect 20 1 5 0;
#X connect 20 2 1 0;
#X connect 21 0 22 0;
#X connect 22 0 17 0;
#X connect 23 0 18 0;
#X connect 23 1 24 0;
#X connect 24 0 17 1;
#X connect 24 0 6 3;
#X connect 24 0 37 1;
#X connect 25 0 26 0;
#X connect 26 0 27 0;
#X connect 27 0 23 0;
#X connect 28 0 25 0;
#X connect 29 0 16 0;
#X connect 30 0 15 0;
#X connect 30 1 29 0;
#X connect 30 2 38 0;
#X connect 31 0 32 0;
#X connect 33 0 29 1;
#X connect 33 1 34 0;
#X connect 34 0 35 1;
#X connect 35 0 37 0;
#X connect 36 0 6 2;
#X connect 37 0 36 1;
#X connect 38 0 35 0;
