#N canvas 55 196 406 460 10;
#X obj 45 41 inlet;
#X obj 45 82 route float list;
#X obj 45 360 vline~, f 16;
#X obj 45 401 outlet~;
#X obj 212 41 inlet;
#X obj 275 41 inlet;
#X obj 91 119 unpack f f f, f 21;
#X obj 152 262 pipe f f f 0, f 16;
#X obj 45 225 route 0 1;
#X obj 45 204 list prepend 0;
#X obj 272 183 loadbang;
#X obj 272 204 samplerate~;
#X msg 272 225 1000 \$1;
#X obj 272 246 /;
#N canvas 568 198 450 300 nonzero? 0;
#X obj 141 48 inlet;
#X obj 223 47 inlet;
#X obj 141 69 t a a;
#X obj 223 68 t a a;
#X obj 168 170 ||;
#X obj 250 118 t b a;
#X obj 141 227 outlet;
#X obj 223 227 outlet;
#X obj 55 227 outlet;
#X obj 168 99 !=;
#X obj 250 97 !=;
#X connect 0 0 2 0;
#X connect 1 0 3 0;
#X connect 2 0 6 0;
#X connect 2 1 9 0;
#X connect 3 0 7 0;
#X connect 3 1 10 0;
#X connect 4 0 8 0;
#X connect 5 0 4 0;
#X connect 5 1 4 1;
#X connect 9 0 4 0;
#X connect 10 0 5 0;
#X restore 151 156 pd nonzero?;
#X obj 272 119 r \$0-reset;
#X obj 124 241 t b a;
#X obj 124 315 s \$0-reset;
#X msg 272 140 0;
#X text 271 402 Ben Wesch \, 2025;
#X connect 0 0 1 0;
#X connect 1 0 9 0;
#X connect 1 1 6 0;
#X connect 1 2 2 0;
#X connect 2 0 3 0;
#X connect 4 0 14 0;
#X connect 5 0 14 1;
#X connect 6 0 9 0;
#X connect 6 1 14 0;
#X connect 6 2 14 1;
#X connect 7 0 2 0;
#X connect 7 1 2 1;
#X connect 7 2 2 2;
#X connect 8 0 2 0;
#X connect 8 1 16 0;
#X connect 9 0 8 0;
#X connect 10 0 11 0;
#X connect 11 0 12 0;
#X connect 12 0 13 0;
#X connect 13 0 7 3;
#X connect 14 0 9 1;
#X connect 14 1 7 1;
#X connect 14 2 7 2;
#X connect 15 0 18 0;
#X connect 16 0 17 0;
#X connect 16 1 7 0;
#X connect 18 0 14 1;
#X connect 18 0 14 0;
